<svg xmlns="http://www.w3.org/2000/svg" xmlns:xlink="http://www.w3.org/1999/xlink" width="500" zoomAndPan="magnify" viewBox="0 0 375 374.999991" height="500" preserveAspectRatio="xMidYMid meet" version="1.0"><defs><clipPath id="e888c03d44"><path d="M 16.136719 139 L 351 139 L 351 299 L 16.136719 299 Z M 16.136719 139 " clip-rule="nonzero"/></clipPath></defs><path fill="#fff7e6" d="M 309.480469 173.070312 C 285.195312 197.132812 242.90625 208.976562 221.671875 213.648438 C 249.597656 200.796875 280.792969 178.425781 306.585938 139.832031 C 306.585938 139.824219 315.941406 150.4375 309.480469 173.070312 Z M 309.480469 173.070312 " fill-opacity="1" fill-rule="nonzero"/><g clip-path="url(#e888c03d44)"><path fill="#fff7e6" d="M 16.136719 260.765625 C 16.136719 260.765625 43.140625 188.195312 101.640625 179.761719 C 160.144531 171.328125 170.265625 195.507812 236.085938 171.882812 C 236.085938 171.882812 247.332031 207.320312 177.023438 216.320312 C 177.023438 216.320312 169.710938 230.382812 191.648438 230.382812 C 213.589844 230.382812 291.210938 220.582031 345.21875 139.816406 C 345.21875 139.816406 370.53125 168.507812 309.21875 232.066406 C 247.90625 295.628906 170.273438 328.269531 16.136719 260.765625 Z M 16.136719 260.765625 " fill-opacity="1" fill-rule="nonzero"/></g><path fill="#ffedc7" d="M 253.5 57.871094 C 242.339844 46.707031 224.257812 46.707031 213.097656 57.871094 L 198.054688 72.902344 L 183.023438 57.871094 C 171.863281 46.707031 153.769531 46.707031 142.617188 57.871094 C 137.039062 63.449219 134.253906 70.753906 134.253906 78.066406 C 134.253906 85.382812 137.046875 92.695312 142.617188 98.273438 L 198.0625 153.722656 L 198.070312 153.722656 L 253.515625 98.273438 C 264.664062 87.113281 264.664062 69.023438 253.5 57.871094 Z M 218.484375 109.171875 L 205.617188 109.171875 L 205.617188 122.042969 L 190.480469 122.042969 L 190.480469 109.171875 L 177.617188 109.171875 L 177.617188 94.039062 L 190.480469 94.039062 L 190.480469 81.175781 L 205.617188 81.175781 L 205.617188 94.046875 L 218.484375 94.046875 Z M 218.484375 109.171875 " fill-opacity="1" fill-rule="nonzero"/></svg>